<svg width="190" height="34" viewBox="0 0 190 34" fill="none" xmlns="http://www.w3.org/2000/svg">
<path d="M37.6533 27.9153V4.48572H47.3059C49.7191 4.48572 51.6314 5.17213 53.0884 6.4992C54.4998 7.82626 55.2283 9.61094 55.2283 11.8532C55.2283 14.0955 54.4998 15.8802 53.0884 17.2073C51.6769 18.5343 49.7191 19.2207 47.3059 19.2207H42.8894V27.9153H37.6533ZM42.8894 14.6446H46.7595C47.7612 14.6446 48.5353 14.4158 49.1272 13.9125C49.6735 13.4091 49.9922 12.7227 49.9922 11.8532C49.9922 10.9838 49.7191 10.2974 49.1272 9.79398C48.5808 9.29061 47.7612 9.06181 46.7595 9.06181H42.8894V14.6446Z" fill="black"/>
<path d="M62.6954 10.8027C65.063 10.8027 66.9298 11.3976 68.2957 12.6332C69.6616 13.8687 70.3446 15.6076 70.3446 17.9414V27.9173H65.6094V25.7666C65.1085 26.4987 64.4256 27.0936 63.5605 27.5055C62.6954 27.9631 61.7847 28.1461 60.8741 28.1461C59.235 28.1461 57.9146 27.6885 56.8674 26.7275C55.8202 25.7666 55.3193 24.5768 55.3193 23.1582C55.3193 19.9092 57.7325 18.033 62.5588 17.4838L65.6094 17.1635V17.072C65.6094 16.2483 65.3362 15.6076 64.8353 15.1043C64.3345 14.6467 63.606 14.3721 62.6954 14.3721C61.8758 14.3721 61.2384 14.6009 60.692 15.0585C60.1456 15.5161 59.8269 16.1568 59.7814 16.9805L55.5015 16.1568C55.7746 14.5094 56.5942 13.2281 57.9146 12.2213C59.2805 11.3061 60.8741 10.8027 62.6954 10.8027ZM62.1035 24.6683C63.1507 24.6683 64.0158 24.3022 64.6532 23.57C65.2906 22.8379 65.6094 21.9684 65.6549 20.9159V20.8701V20.7786V20.6413L62.5132 21.0074C61.6937 21.0989 61.1018 21.3277 60.6465 21.6938C60.1912 22.0599 60.009 22.4718 60.009 23.0209C60.009 23.5243 60.1912 23.8904 60.5554 24.2107C60.9197 24.531 61.466 24.6683 62.1035 24.6683Z" fill="black"/>
<path d="M83.5033 11.074H88.5118L79.6787 34.0002H74.6703L77.3111 27.0903L70.8457 11.074H76.1273L79.7243 20.8668L83.5033 11.074Z" fill="black"/>
<path d="M100.487 28.1906C97.2994 28.1906 94.5675 27.1381 92.3365 25.0331C90.1054 22.9281 89.0127 19.9994 89.0127 16.2013C89.0127 12.4031 90.151 9.47442 92.4731 7.36942C94.7951 5.26442 97.5725 4.21191 100.896 4.21191C103.81 4.21191 106.223 4.89833 108.09 6.31692C110.003 7.7355 111.141 9.70322 111.596 12.1743L106.406 13.2268C106.132 11.854 105.495 10.7557 104.493 9.93203C103.492 9.10833 102.262 8.69648 100.805 8.69648C98.8474 8.69648 97.2538 9.3829 96.0245 10.71C94.8407 12.037 94.2488 13.8675 94.2488 16.2013C94.2488 18.5351 94.8407 20.3198 96.0245 21.6468C97.2083 22.9739 98.8019 23.6145 100.714 23.6145C102.262 23.6145 103.537 23.2027 104.539 22.4248C105.54 21.6468 106.132 20.6401 106.315 19.3588H99.9857V15.1488H111.186V27.9161H106.406V25.4907C105.905 26.3144 105.131 26.9551 104.038 27.4585C102.945 27.9618 101.761 28.1906 100.487 28.1906Z" fill="black"/>
<path d="M114.146 27.9173V4.25891H119.017V27.9173H114.146Z" fill="black"/>
<path d="M130.036 28.1919C127.441 28.1919 125.301 27.3682 123.662 25.7208C122.023 24.0734 121.203 22.0142 121.203 19.4973C121.203 16.9805 122.023 14.8755 123.662 13.2738C125.301 11.6264 127.441 10.8027 130.036 10.8027C132.586 10.8027 134.68 11.6264 136.365 13.2738C138.05 14.9212 138.869 16.9805 138.869 19.4973C138.869 22.0142 138.05 24.1192 136.365 25.7208C134.68 27.3682 132.586 28.1919 130.036 28.1919ZM130.036 24.0276C131.22 24.0276 132.176 23.6158 132.905 22.7921C133.633 21.9684 133.997 20.8701 133.997 19.5431C133.997 18.216 133.633 17.1177 132.905 16.294C132.176 15.4703 131.22 15.0585 130.036 15.0585C128.852 15.0585 127.851 15.4703 127.122 16.294C126.394 17.1177 126.029 18.216 126.029 19.5431C126.029 20.8701 126.394 21.9684 127.122 22.7921C127.851 23.6158 128.807 24.0276 130.036 24.0276Z" fill="black"/>
<path d="M148.75 28.1919C146.2 28.1919 144.151 27.3682 142.558 25.7666C140.964 24.1649 140.145 22.0599 140.145 19.4973C140.145 16.9347 140.964 14.8297 142.558 13.2281C144.151 11.6264 146.2 10.8027 148.75 10.8027C150.981 10.8027 152.848 11.3519 154.305 12.4044C155.762 13.4569 156.627 14.9212 156.9 16.7974L152.165 17.7126C152.028 16.8432 151.664 16.2025 151.118 15.6992C150.526 15.1958 149.797 14.967 148.932 14.967C147.794 14.967 146.883 15.3788 146.2 16.2025C145.517 17.0262 145.198 18.1245 145.198 19.4973C145.198 20.8701 145.563 21.9684 146.246 22.7921C146.929 23.6158 147.839 24.0276 148.978 24.0276C150.708 24.0276 151.755 23.1582 152.119 21.465L156.9 22.426C156.581 24.2107 155.716 25.6293 154.259 26.636C152.802 27.6885 150.935 28.1919 148.75 28.1919Z" fill="black"/>
<path d="M165.55 10.8027C167.917 10.8027 169.784 11.3976 171.15 12.6332C172.516 13.8687 173.199 15.6076 173.199 17.9414V27.9173H168.464V25.7666C167.963 26.4987 167.28 27.0936 166.415 27.5055C165.55 27.9631 164.639 28.1461 163.729 28.1461C162.09 28.1461 160.769 27.6885 159.722 26.7275C158.675 25.7666 158.174 24.5768 158.174 23.1582C158.174 19.9092 160.587 18.033 165.413 17.4838L168.464 17.1635V17.072C168.464 16.2483 168.191 15.6076 167.69 15.1043C167.189 14.6467 166.46 14.3721 165.55 14.3721C164.73 14.3721 164.093 14.6009 163.547 15.0585C163 15.5161 162.681 16.1568 162.636 16.9805L158.356 16.1568C158.629 14.5094 159.449 13.2281 160.769 12.2213C162.135 11.3061 163.729 10.8027 165.55 10.8027ZM164.958 24.6683C166.005 24.6683 166.87 24.3022 167.508 23.57C168.145 22.8379 168.464 21.9684 168.509 20.9159V20.8701V20.7786V20.6413L165.368 21.0074C164.548 21.0989 163.956 21.3277 163.501 21.6938C163.046 22.0599 162.864 22.4718 162.864 23.0209C162.864 23.5243 163.046 23.8904 163.41 24.2107C163.774 24.531 164.275 24.6683 164.958 24.6683Z" fill="black"/>
<path d="M176.158 27.9173V4.25891H181.03V27.9173H176.158Z" fill="black"/>
<path d="M184.764 7.36948V4.48654H183.717V4.02893H186.312V4.5323H185.31V7.41524H184.764V7.36948Z" fill="black"/>
<path d="M186.631 7.3696V4.02905H187.268L188.316 6.59166L189.363 4.02905H190V7.3696H189.454V5.08155L188.498 7.3696H188.042L187.086 5.08155V7.3696H186.631Z" fill="black"/>
<path d="M27.5463 6.40653L17.7116 0.686414C16.118 -0.228805 14.1146 -0.228805 12.4755 0.686414L2.59527 6.40653C1.00168 7.36751 0 9.10642 0 10.9826V22.4228C0 24.299 1.00168 26.038 2.59527 26.9989L12.4755 32.719C13.2951 33.1767 14.2057 33.4055 15.0708 33.4055C15.9814 33.4055 16.892 33.1767 17.6661 32.719L27.5463 26.9989C29.1399 26.0837 30.1416 24.299 30.1416 22.4228V10.9826C30.1871 9.10642 29.1854 7.36751 27.5463 6.40653ZM25.1332 22.6974L15.2529 28.4175C15.1619 28.4633 15.0253 28.4633 14.9342 28.4175L5.05395 22.6974C4.96289 22.6516 4.87183 22.5144 4.87183 22.4228V10.9826C4.87183 10.8453 4.91736 10.7538 5.05395 10.7081L14.9342 4.98794C14.9797 4.94218 15.0253 4.94218 15.1163 4.94218C15.1619 4.94218 15.2529 4.94218 15.2984 4.98794L25.1787 10.7081C25.2698 10.7538 25.3608 10.8911 25.3608 10.9826V14.2316H14.9797C13.6138 14.2316 12.521 15.3299 12.521 16.7027C12.521 18.0756 13.6138 19.1738 14.9797 19.1738H25.2698V22.4228C25.2698 22.5601 25.2242 22.6516 25.1332 22.6974Z" fill="black"/>
</svg>
