<svg width="190" height="34" viewBox="0 0 190 34" fill="none" xmlns="http://www.w3.org/2000/svg">
<path d="M37.6533 27.9154V4.48578H47.3059C49.7191 4.48578 51.6314 5.17219 53.0884 6.49926C54.4998 7.82633 55.2283 9.611 55.2283 11.8533C55.2283 14.0956 54.4998 15.8802 53.0884 17.2073C51.6769 18.5344 49.7191 19.2208 47.3059 19.2208H42.8894V27.9154H37.6533ZM42.8894 14.6447H46.7595C47.7612 14.6447 48.5353 14.4159 49.1272 13.9125C49.6735 13.4092 49.9922 12.7227 49.9922 11.8533C49.9922 10.9838 49.7191 10.2974 49.1272 9.79404C48.5808 9.29067 47.7612 9.06187 46.7595 9.06187H42.8894V14.6447Z" fill="white"/>
<path d="M62.6954 10.8028C65.063 10.8028 66.9298 11.3977 68.2957 12.6332C69.6616 13.8688 70.3446 15.6077 70.3446 17.9415V27.9174H65.6094V25.7666C65.1085 26.4988 64.4256 27.0937 63.5605 27.5055C62.6954 27.9631 61.7847 28.1462 60.8741 28.1462C59.235 28.1462 57.9146 27.6886 56.8674 26.7276C55.8202 25.7666 55.3193 24.5768 55.3193 23.1582C55.3193 19.9092 57.7325 18.033 62.5588 17.4839L65.6094 17.1636V17.072C65.6094 16.2483 65.3362 15.6077 64.8353 15.1043C64.3345 14.6467 63.606 14.3721 62.6954 14.3721C61.8758 14.3721 61.2384 14.601 60.692 15.0586C60.1456 15.5162 59.8269 16.1568 59.7814 16.9805L55.5015 16.1568C55.7746 14.5094 56.5942 13.2281 57.9146 12.2214C59.2805 11.3062 60.8741 10.8028 62.6954 10.8028ZM62.1035 24.6684C63.1507 24.6684 64.0158 24.3023 64.6532 23.5701C65.2906 22.8379 65.6094 21.9685 65.6549 20.916V20.8702V20.7787V20.6414L62.5132 21.0075C61.6937 21.099 61.1018 21.3278 60.6465 21.6939C60.1912 22.06 60.009 22.4718 60.009 23.021C60.009 23.5243 60.1912 23.8904 60.5554 24.2107C60.9197 24.5311 61.466 24.6684 62.1035 24.6684Z" fill="white"/>
<path d="M83.5033 11.0739H88.5118L79.6787 34.0001H74.6703L77.3111 27.0902L70.8457 11.0739H76.1273L79.7243 20.8667L83.5033 11.0739Z" fill="white"/>
<path d="M100.487 28.1906C97.2994 28.1906 94.5675 27.1381 92.3365 25.0331C90.1054 22.9281 89.0127 19.9994 89.0127 16.2013C89.0127 12.4031 90.151 9.47442 92.4731 7.36942C94.7951 5.26442 97.5725 4.21191 100.896 4.21191C103.81 4.21191 106.223 4.89833 108.09 6.31692C110.003 7.7355 111.141 9.70322 111.596 12.1743L106.406 13.2268C106.132 11.854 105.495 10.7557 104.493 9.93203C103.492 9.10833 102.262 8.69648 100.805 8.69648C98.8474 8.69648 97.2538 9.3829 96.0245 10.71C94.8407 12.037 94.2488 13.8675 94.2488 16.2013C94.2488 18.5351 94.8407 20.3198 96.0245 21.6468C97.2083 22.9739 98.8019 23.6145 100.714 23.6145C102.262 23.6145 103.537 23.2027 104.539 22.4248C105.54 21.6468 106.132 20.6401 106.315 19.3588H99.9857V15.1488H111.186V27.9161H106.406V25.4907C105.905 26.3144 105.131 26.9551 104.038 27.4585C102.945 27.9618 101.761 28.1906 100.487 28.1906Z" fill="white"/>
<path d="M114.146 27.9172V4.25885H119.017V27.9172H114.146Z" fill="white"/>
<path d="M130.036 28.1919C127.441 28.1919 125.301 27.3682 123.662 25.7209C122.023 24.0735 121.203 22.0142 121.203 19.4974C121.203 16.9805 122.023 14.8755 123.662 13.2739C125.301 11.6265 127.441 10.8028 130.036 10.8028C132.586 10.8028 134.68 11.6265 136.365 13.2739C138.05 14.9213 138.869 16.9805 138.869 19.4974C138.869 22.0142 138.05 24.1192 136.365 25.7209C134.68 27.3682 132.586 28.1919 130.036 28.1919ZM130.036 24.0277C131.22 24.0277 132.176 23.6158 132.905 22.7922C133.633 21.9685 133.997 20.8702 133.997 19.5431C133.997 18.2161 133.633 17.1178 132.905 16.2941C132.176 15.4704 131.22 15.0586 130.036 15.0586C128.852 15.0586 127.851 15.4704 127.122 16.2941C126.394 17.1178 126.029 18.2161 126.029 19.5431C126.029 20.8702 126.394 21.9685 127.122 22.7922C127.851 23.6158 128.807 24.0277 130.036 24.0277Z" fill="white"/>
<path d="M148.75 28.1919C146.2 28.1919 144.151 27.3682 142.558 25.7666C140.964 24.165 140.145 22.06 140.145 19.4974C140.145 16.9348 140.964 14.8298 142.558 13.2281C144.151 11.6265 146.2 10.8028 148.75 10.8028C150.981 10.8028 152.848 11.3519 154.305 12.4044C155.762 13.4569 156.627 14.9213 156.9 16.7975L152.165 17.7127C152.028 16.8432 151.664 16.2026 151.118 15.6992C150.526 15.1958 149.797 14.967 148.932 14.967C147.794 14.967 146.883 15.3789 146.2 16.2026C145.517 17.0263 145.198 18.1245 145.198 19.4974C145.198 20.8702 145.563 21.9685 146.246 22.7922C146.929 23.6158 147.839 24.0277 148.978 24.0277C150.708 24.0277 151.755 23.1582 152.119 21.4651L156.9 22.4261C156.581 24.2107 155.716 25.6293 154.259 26.6361C152.802 27.6886 150.935 28.1919 148.75 28.1919Z" fill="white"/>
<path d="M165.55 10.8028C167.917 10.8028 169.784 11.3977 171.15 12.6332C172.516 13.8688 173.199 15.6077 173.199 17.9415V27.9174H168.464V25.7666C167.963 26.4988 167.28 27.0937 166.415 27.5055C165.55 27.9631 164.639 28.1462 163.729 28.1462C162.09 28.1462 160.769 27.6886 159.722 26.7276C158.675 25.7666 158.174 24.5768 158.174 23.1582C158.174 19.9092 160.587 18.033 165.413 17.4839L168.464 17.1636V17.072C168.464 16.2483 168.191 15.6077 167.69 15.1043C167.189 14.6467 166.46 14.3721 165.55 14.3721C164.73 14.3721 164.093 14.601 163.547 15.0586C163 15.5162 162.681 16.1568 162.636 16.9805L158.356 16.1568C158.629 14.5094 159.449 13.2281 160.769 12.2214C162.135 11.3062 163.729 10.8028 165.55 10.8028ZM164.958 24.6684C166.005 24.6684 166.87 24.3023 167.508 23.5701C168.145 22.8379 168.464 21.9685 168.509 20.916V20.8702V20.7787V20.6414L165.368 21.0075C164.548 21.099 163.956 21.3278 163.501 21.6939C163.046 22.06 162.864 22.4718 162.864 23.021C162.864 23.5243 163.046 23.8904 163.41 24.2107C163.774 24.5311 164.275 24.6684 164.958 24.6684Z" fill="white"/>
<path d="M176.158 27.9172V4.25885H181.03V27.9172H176.158Z" fill="white"/>
<path d="M184.764 7.36954V4.4866H183.717V4.02899H186.312V4.53236H185.31V7.4153H184.764V7.36954Z" fill="white"/>
<path d="M186.631 7.36966V4.02911H187.268L188.316 6.59172L189.363 4.02911H190V7.36966H189.454V5.08161L188.498 7.36966H188.042L187.086 5.08161V7.36966H186.631Z" fill="white"/>
<path d="M27.5463 6.40653L17.7116 0.686414C16.118 -0.228805 14.1146 -0.228805 12.4755 0.686414L2.59527 6.40653C1.00168 7.36751 0 9.10642 0 10.9826V22.4228C0 24.299 1.00168 26.038 2.59527 26.9989L12.4755 32.719C13.2951 33.1767 14.2057 33.4055 15.0708 33.4055C15.9814 33.4055 16.892 33.1767 17.6661 32.719L27.5463 26.9989C29.1399 26.0837 30.1416 24.299 30.1416 22.4228V10.9826C30.1871 9.10642 29.1854 7.36751 27.5463 6.40653ZM25.1332 22.6974L15.2529 28.4175C15.1619 28.4633 15.0253 28.4633 14.9342 28.4175L5.05395 22.6974C4.96289 22.6516 4.87183 22.5144 4.87183 22.4228V10.9826C4.87183 10.8453 4.91736 10.7538 5.05395 10.7081L14.9342 4.98794C14.9797 4.94218 15.0253 4.94218 15.1163 4.94218C15.1619 4.94218 15.2529 4.94218 15.2984 4.98794L25.1787 10.7081C25.2698 10.7538 25.3608 10.8911 25.3608 10.9826V14.2316H14.9797C13.6138 14.2316 12.521 15.3299 12.521 16.7027C12.521 18.0756 13.6138 19.1738 14.9797 19.1738H25.2698V22.4228C25.2698 22.5601 25.2242 22.6516 25.1332 22.6974Z" fill="white"/>
</svg>
